HIERARCHY
ROOT Hips
{
	OFFSET 0.000000 0.000000 0.000000
	CHANNELS 6 Xposition Yposition Zposition Zrotation Yrotation Xrotation 
	JOINT LHipJoint
	{
		OFFSET 0.000000 0.000000 0.000000
		CHANNELS 3 Zrotation Yrotation Xrotation
		JOINT LeftUpLeg
		{
			OFFSET 1.363060 -1.794630 0.839290
			CHANNELS 3 Zrotation Yrotation Xrotation
			JOINT LeftLeg
			{
				OFFSET 2.448110 -6.726130 0.000000
				CHANNELS 3 Zrotation Yrotation Xrotation
				JOINT LeftFoot
				{
					OFFSET 2.562200 -7.039590 0.000000
					CHANNELS 3 Zrotation Yrotation Xrotation
					JOINT LeftToeBase
					{
						OFFSET 0.157640 -0.433110 2.322550
						CHANNELS 3 Zrotation Yrotation Xrotation
						End Site
						{
							OFFSET 0.000000 0.000000 0.000000
						}
					}
				}
			}
		}
	}
	JOINT RHipJoint
	{
		OFFSET 0.000000 0.000000 0.000000
		CHANNELS 3 Zrotation Yrotation Xrotation
		JOINT RightUpLeg
		{
			OFFSET -1.305520 -1.794630 0.839290
			CHANNELS 3 Zrotation Yrotation Xrotation
			JOINT RightLeg
			{
				OFFSET -2.542530 -6.985550 0.000000
				CHANNELS 3 Zrotation Yrotation Xrotation
				JOINT RightFoot
				{
					OFFSET -2.568260 -7.056230 0.000000
					CHANNELS 3 Zrotation Yrotation Xrotation
					JOINT RightToeBase
					{
						OFFSET -0.164730 -0.452590 2.363150
						CHANNELS 3 Zrotation Yrotation Xrotation
						End Site
						{
							OFFSET 0.000000 0.000000 0.000000
						}
					}
				}
			}
		}
	}
}
MOTION
Frames: 13
Frame Time: 0.008333
-15.879794 16.017388 0.457731 8.824350 84.383631 50.695554 -7.391755 -0.317239 3.376932 -13.743230 -12.288922 -73.861047 -2.212317 1.958004 40.244033 2.865501 8.804938 -14.179369 -0.402600 -0.000000 -24.566000 11.723399 -2.406344 -1.161220 2.610442 -0.353331 -14.523435 0.515924 -1.779235 33.417623 -1.629186 -8.635887 1.630073 -1.566300 -0.000000 -53.215900
-15.678106 15.870926 0.468473 11.879686 84.576202 53.587947 -7.287656 -0.393337 3.221701 -13.931583 -12.827581 -74.823571 -1.882432 2.326608 44.580329 2.989388 9.035694 -15.804415 -0.779600 -0.000000 -22.424400 11.930137 -2.384691 -1.255562 2.021029 -1.076893 -14.865725 0.507678 -1.938681 35.492383 -1.603498 -8.358970 0.425820 -1.323500 -0.000000 -53.038600
-15.479305 15.729713 0.479750 15.604727 84.762332 57.088283 -7.156404 -0.461407 3.036155 -14.248653 -13.332095 -75.526106 -1.584390 2.640811 48.673772 3.118640 9.292414 -17.568681 -1.203500 0.000001 -20.648200 12.172146 -2.333317 -1.378677 1.357731 -1.854993 -15.202438 0.487626 -2.109205 37.622503 -1.601788 -8.242598 -0.800667 -1.113900 0.000001 -52.637100
-15.283779 15.596295 0.490926 19.803328 84.921463 61.004961 -7.007346 -0.508275 2.822894 -14.692145 -13.779527 -75.940920 -1.327260 2.904345 52.432367 3.256088 9.579797 -19.443895 -1.671500 -0.000000 -19.327800 12.438939 -2.247849 -1.529204 0.636276 -2.649302 -15.535682 0.452458 -2.288790 39.800595 -1.625505 -8.298382 -2.022751 -0.933100 0.000000 -52.023400
-15.091331 15.472809 0.501231 24.206970 85.036373 65.076857 -6.854924 -0.526516 2.585914 -15.246307 -14.146961 -76.060490 -1.114901 3.124062 55.796762 3.402532 9.897254 -21.392082 -2.178799 0.000000 -18.506200 12.713971 -2.128206 -1.701791 -0.122445 -3.417922 -15.873696 0.400164 -2.474971 42.017572 -1.673952 -8.521355 -3.215621 -0.773701 0.000000 -51.202600
-14.901744 15.360811 0.509858 28.519612 85.098831 69.019207 -6.716041 -0.517078 2.329628 -15.882083 -14.415365 -75.894260 -0.946878 3.306727 58.735281 3.556196 10.239531 -23.365423 -2.716900 0.000001 -18.181299 12.977243 -1.979380 -1.888768 -0.891517 -4.119334 -16.231130 0.330667 -2.665847 44.262579 -1.744637 -8.892609 -4.358683 -0.627700 -0.000000 -50.185400
-14.714475 15.261373 0.516078 32.485229 85.112411 72.588101 -6.605515 -0.486892 2.060915 -16.562353 -14.573477 -75.465440 -0.820021 3.457215 61.238793 3.712954 10.596573 -25.310682 -3.273400 -0.000000 -18.305500 13.210976 -1.811556 -2.079065 -1.640375 -4.717627 -16.628423 0.245576 -2.860081 46.523647 -1.833457 -9.382128 -5.438366 -0.487800 0.000000 -48.985900
-14.528929 15.174989 0.519224 35.918038 85.091221 75.613384 -6.533511 -0.447112 1.785830 -17.243903 -14.618562 -74.809291 -0.729310 3.578591 63.318683 3.867186 10.955745 -27.175573 -3.832700 0.000001 -18.784800 13.402306 -1.636379 -2.263002 -2.337070 -5.186299 -17.089600 0.147774 -3.057088 48.789878 -1.934945 -9.951953 -6.449801 -0.348400 -0.000001 -47.625200
-14.344425 15.101697 0.518940 38.727048 85.054022 78.018433 -6.504285 -0.407465 1.512783 -17.885928 -14.557169 -73.968059 -0.669049 3.672628 65.000892 4.013059 11.303648 -28.914532 -4.377600 0.000000 -19.488300 13.545413 -1.465333 -2.430160 -2.952475 -5.510619 -17.639772 0.040324 -3.255584 51.050083 -2.042753 -10.560309 -7.395944 -0.205200 0.000000 -46.133300
-14.160224 15.041163 0.515211 40.898819 85.019147 79.802593 -6.517307 -0.374468 1.251597 -18.454611 -14.404614 -72.987324 -0.633288 3.740758 66.322635 4.145542 11.628386 -30.493013 -4.891899 -0.000000 -20.269000 13.640246 -1.307290 -2.571373 -3.465017 -5.689166 -18.302042 -0.073886 -3.453415 53.293409 -2.150239 -11.165236 -8.286363 -0.055500 -0.000000 -44.548100
-13.975745 14.992793 0.508316 42.474620 85.001169 81.020353 -6.568291 -0.351565 1.010315 -18.925688 -14.181398 -71.912009 -0.616502 3.784687 67.326768 4.261181 11.921509 -31.890100 -5.362500 -0.000000 -20.994200 13.690899 -1.166470 -2.681615 -3.861592 -5.732572 -19.095683 -0.192241 -3.648060 55.509285 -2.251225 -11.728570 -9.134317 0.102200 0.000001 -42.915100
-13.790484 14.955889 0.498770 43.539314 85.009697 81.765884 -6.650366 -0.338264 0.796889 -19.288049 -13.911516 -70.781228 -0.613976 3.806401 68.056506 4.358347 12.177892 -33.098115 -5.780601 -0.000000 -21.571099 13.704493 -1.043391 -2.757982 -4.139390 -5.662527 -20.032980 -0.312415 -3.836534 57.685112 -2.340636 -12.219040 -9.954194 0.268300 0.000000 -41.282300
-13.604039 14.929738 0.487454 44.208079 85.048462 82.159598 -6.755127 -0.330930 0.617583 -19.543582 -13.617158 -69.624310 -0.622367 3.808155 68.550731 4.437117 12.395090 -34.121833 -6.142600 0.000000 -21.957400 13.689913 -0.935241 -2.799873 -4.304941 -5.508552 -21.118392 -0.432306 -4.015937 59.806051 -2.414828 -12.613708 -10.758074 0.441600 0.000000 -39.695800
